<?xml version="1.0" standalone="no"?>
<!DOCTYPE svg PUBLIC "-//W3C//DTD SVG 20010904//EN"
 "http://www.w3.org/TR/2001/REC-SVG-20010904/DTD/svg10.dtd">
<svg version="1.0" xmlns="http://www.w3.org/2000/svg"
 width="300.000000pt" height="228.000000pt" viewBox="0 0 300.000000 228.000000"
 preserveAspectRatio="xMidYMid meet">
<metadata>
Created by potrace 1.10, written by Peter Selinger 2001-2011
</metadata>
<g transform="translate(0.000000,228.000000) scale(0.100000,-0.100000)"
fill="#000000" stroke="none">
<path d="M2255 2186 c-115 -45 -273 -106 -350 -135 -77 -29 -167 -64 -200 -76
-310 -120 -383 -145 -423 -151 -56 -7 -1040 -141 -1131 -154 -35 -5 -64 -10
-66 -12 -3 -4 32 -257 39 -274 3 -9 -14 -20 -54 -35 -33 -12 -60 -26 -60 -30
0 -5 44 -132 98 -282 l99 -272 34 -253 33 -253 41 6 c22 3 51 8 65 11 24 4 27
-2 74 -127 27 -72 55 -133 61 -135 7 -3 90 25 186 62 96 36 280 106 409 155
129 50 251 96 270 104 19 7 85 32 145 55 61 22 121 45 134 51 13 5 40 12 60
14 20 3 281 38 581 79 300 41 559 76 575 78 27 3 30 6 29 38 -1 32 -11 118
-19 159 -1 9 -6 34 -9 56 l-7 41 53 18 c82 29 82 3 -1 231 -21 61 -60 166 -86
234 -43 114 -49 143 -81 374 -19 138 -36 252 -38 255 -2 2 -30 -1 -62 -7 -33
-6 -60 -8 -62 -4 -1 5 -24 64 -51 133 -28 73 -54 126 -62 127 -8 1 -108 -36
-224 -81z m215 34 c8 0 36 -61 66 -148 26 -76 45 -92 104 -92 38 0 50 -4 54
-17 6 -21 31 -180 51 -338 8 -61 26 -142 39 -180 56 -158 106 -295 135 -370
17 -44 31 -85 31 -92 0 -7 -15 -19 -32 -27 -75 -34 -78 -44 -54 -199 15 -104
11 -114 -54 -122 -25 -3 -90 -12 -145 -20 -55 -9 -122 -18 -150 -20 -27 -3
-72 -10 -100 -15 -27 -5 -171 -25 -320 -45 -412 -55 -415 -55 -490 -82 -72
-27 -274 -103 -310 -118 -11 -5 -22 -9 -25 -10 -22 -6 -62 -20 -95 -35 -22
-10 -101 -40 -175 -68 -74 -28 -193 -74 -265 -102 -185 -73 -193 -76 -207 -62
-7 7 -28 55 -48 107 -47 124 -57 135 -119 135 -62 0 -63 1 -77 110 -7 56 -13
98 -19 130 -2 14 -7 48 -10 75 -15 143 -21 170 -82 335 -49 132 -123 342 -123
349 0 3 20 17 44 29 28 15 47 33 50 48 4 13 -1 72 -9 130 -18 118 -15 130 39
138 17 3 121 17 231 31 203 27 388 52 730 101 220 31 199 25 510 144 132 50
263 100 290 110 28 10 127 48 220 85 94 37 190 73 215 82 25 8 49 19 55 24 5
5 16 7 23 4 8 -3 17 -5 22 -5z"/>
<path d="M2320 2124 c-105 -41 -179 -70 -270 -103 -47 -18 -117 -45 -155 -61
-39 -16 -93 -36 -120 -45 -28 -9 -59 -20 -70 -25 -61 -27 -107 -45 -280 -109
-217 -82 -391 -148 -420 -162 -11 -5 -45 -18 -75 -28 -87 -31 -205 -75 -345
-131 -71 -28 -184 -71 -250 -96 -136 -51 -163 -62 -187 -83 -20 -16 -23 -48
-8 -83 8 -21 80 -209 160 -418 94 -246 133 -347 141 -365 5 -11 27 -69 49
-130 22 -60 47 -120 56 -132 19 -29 69 -31 126 -3 23 11 46 20 51 20 5 0 45
15 90 34 45 19 132 53 192 75 152 55 217 80 240 91 11 5 58 23 105 40 75 27
227 86 285 109 62 26 112 45 220 85 66 25 167 64 225 86 58 23 134 52 170 65
107 39 284 105 305 115 11 5 52 21 90 35 208 79 225 89 225 125 0 18 -152 433
-181 495 -8 18 -67 172 -186 485 -58 154 -67 159 -183 114z m174 -172 c37 -97
111 -289 163 -427 52 -137 117 -308 145 -378 27 -71 48 -130 47 -131 -2 -2
-184 -72 -404 -156 -220 -83 -526 -200 -680 -259 -154 -60 -381 -147 -505
-194 -124 -47 -322 -122 -440 -167 -118 -45 -221 -86 -229 -90 -12 -6 -35 44
-113 249 -137 360 -219 571 -284 739 -47 119 -50 132 -34 132 9 0 791 296
1085 411 117 45 466 178 852 324 150 57 280 108 290 114 10 6 23 11 28 11 6 0
41 -80 79 -178z"/>
<path d="M1395 1670 c-147 -31 -274 -118 -357 -245 -113 -173 -111 -412 6
-588 230 -346 750 -317 934 52 51 101 66 172 59 281 -12 196 -119 360 -289
446 -114 57 -241 77 -353 54z m265 -49 c122 -38 235 -136 294 -255 47 -94 60
-160 53 -266 -8 -119 -50 -216 -131 -307 -46 -51 -163 -133 -189 -133 -7 0
-18 -5 -25 -12 -7 -7 -12 -9 -12 -6 0 4 -14 3 -31 -2 -162 -47 -353 7 -481
135 -107 107 -152 214 -152 365 1 144 44 249 147 354 136 138 336 186 527 127z"/>
<path d="M1410 1598 c-165 -25 -323 -171 -366 -338 -23 -89 -23 -146 -2 -235
40 -171 164 -298 338 -346 25 -7 83 -12 130 -12 296 1 515 284 446 575 -60
248 -286 396 -546 356z m230 -42 c101 -37 204 -126 250 -217 85 -164 59 -364
-63 -496 -256 -278 -705 -145 -767 227 -37 218 114 442 335 496 64 15 187 10
245 -10z"/>
<path d="M1368 1422 c-43 -17 -44 -21 -23 -62 9 -18 11 -30 5 -30 -18 0 -50
-64 -50 -101 0 -81 64 -127 181 -128 60 -1 79 -13 79 -48 0 -36 -54 -65 -110
-59 l-45 4 3 -43 c5 -51 20 -60 83 -50 37 6 40 5 50 -24 13 -36 10 -35 54 -17
40 17 40 17 20 55 -13 26 -13 30 1 42 53 44 57 139 8 190 -32 34 -78 49 -151
49 -49 0 -83 17 -83 40 0 22 55 50 96 50 l44 0 0 46 0 45 -52 -2 c-49 -3 -52
-2 -62 27 l-11 30 -37 -14z m44 -59 c11 -10 32 -16 49 -15 43 3 33 -17 -16
-34 -81 -27 -99 -95 -35 -126 19 -9 62 -19 94 -23 72 -7 91 -17 111 -55 21
-40 18 -68 -10 -115 -14 -22 -25 -53 -25 -69 0 -28 0 -28 -26 -11 -22 14 -46
21 -87 24 -5 1 -7 7 -4 14 4 12 8 13 48 16 28 1 79 54 79 81 0 12 -13 35 -29
51 -24 23 -38 29 -73 29 -71 0 -117 18 -139 53 -22 37 -20 68 10 118 12 20 21
41 20 45 -6 36 6 42 33 17z"/>
<path d="M696 1663 c-1 -2 -38 -8 -82 -13 -103 -13 -244 -32 -344 -46 -39 -5
-79 -28 -81 -47 -8 -76 14 -155 45 -163 19 -4 80 14 151 45 11 5 54 21 95 36
41 15 89 33 105 40 17 7 71 27 120 46 81 29 165 72 165 84 0 8 -543 -191 -604
-222 -22 -11 -30 -12 -36 -3 -8 12 -23 140 -18 145 2 2 28 6 58 9 30 4 66 8
80 11 23 3 107 15 215 30 137 19 288 44 293 50 4 4 -30 5 -76 4 -46 -2 -84 -4
-86 -6z"/>
<path d="M2695 870 c-11 -5 -116 -45 -232 -89 -212 -80 -306 -122 -318 -140
-3 -6 25 0 62 13 95 33 521 194 542 206 17 8 19 3 25 -55 4 -36 9 -71 12 -78
4 -10 -63 -23 -303 -56 -169 -24 -312 -48 -318 -53 -12 -13 105 -5 255 16 58
8 125 17 150 20 207 23 240 36 240 94 -1 52 -16 113 -32 123 -16 11 -57 10
-83 -1z"/>
</g>
</svg>
